<svg width="30" height="42" viewBox="0 0 30 42" fill="none" xmlns="http://www.w3.org/2000/svg">
<path d="M15 42C14.0741 42 13.2778 41.7439 12.6111 41.2317C11.9444 40.7195 11.5556 40.0461 11.4444 39.2114H10.2222C9.59259 39.2114 9.01852 38.9553 8.5 38.4431C7.98148 37.9309 7.72222 37.3333 7.72222 36.6504V29.1382C5.27778 27.6206 3.37963 25.6572 2.02778 23.248C0.675926 20.8388 0 18.2114 0 15.3659C0 11.0786 1.4537 7.4458 4.36111 4.46748C7.26852 1.48916 10.8148 0 15 0C19.1852 0 22.7315 1.48916 25.6389 4.46748C28.5463 7.4458 30 11.0786 30 15.3659C30 18.2114 29.3241 20.8388 27.9722 23.248C26.6204 25.6572 24.7222 27.6206 22.2778 29.1382V36.6504C22.2778 37.3333 22.0185 37.9309 21.5 38.4431C20.9815 38.9553 20.4074 39.2114 19.7778 39.2114H18.5556C18.4444 40.0461 18.0556 40.7195 17.3889 41.2317C16.7222 41.7439 15.9259 42 15 42ZM10.2222 36.6504H19.7778V34.2033H10.2222V36.6504ZM10.2222 32.1545H19.7778V29.878H10.2222V32.1545ZM9.72222 27.3171H13.9444V19.4634L9.05556 14.3984L10.4444 12.9756L15 17.6423L19.5556 12.9756L20.9444 14.3984L16.0556 19.4634V27.3171H20.2778C22.4259 26.2547 24.1667 24.6518 25.5 22.5081C26.8333 20.3645 27.5 17.9837 27.5 15.3659C27.5 11.7995 26.287 8.77371 23.8611 6.28862C21.4352 3.80352 18.4815 2.56098 15 2.56098C11.5185 2.56098 8.56481 3.80352 6.13889 6.28862C3.71296 8.77371 2.5 11.7995 2.5 15.3659C2.5 17.9837 3.16667 20.3645 4.5 22.5081C5.83333 24.6518 7.57407 26.2547 9.72222 27.3171Z" fill="#661FFE"/>
</svg>
