<svg width="36" height="36" viewBox="0 0 36 36" fill="none" xmlns="http://www.w3.org/2000/svg">
<path d="M18 27.1038L8.04 17.2586L10.02 15.3608L16.62 21.8847V0H19.38V21.8847L25.98 15.3608L27.96 17.2586L18 27.1038ZM3.48 36C2.52 36 1.7 35.6639 1.02 34.9918C0.34 34.3196 0 33.5091 0 32.5601V25.2059H2.7V32.5601C2.7 32.7578 2.78 32.9357 2.94 33.0939C3.1 33.2521 3.28 33.3311 3.48 33.3311H32.52C32.72 33.3311 32.9 33.2521 33.06 33.0939C33.22 32.9357 33.3 32.7578 33.3 32.5601V25.2059H36V32.5601C36 33.5091 35.66 34.3196 34.98 34.9918C34.3 35.6639 33.48 36 32.52 36H3.48Z" fill="#661FFE"/>
</svg>
