<svg width="50" height="50" viewBox="0 0 50 50" fill="none" xmlns="http://www.w3.org/2000/svg">
<path fill-rule="evenodd" clip-rule="evenodd" d="M41.9224 0.265127C41.6866 0.500811 41.6667 0.598189 41.6667 1.51489V2.50897H40H38.3333V3.34215V4.17532H40.5614C43.1795 4.17532 43.2335 4.15731 43.3293 3.25373L43.3854 2.72362L45.5729 4.6368C46.776 5.689 47.7604 6.60612 47.7604 6.67485C47.7604 6.74359 46.776 7.66071 45.5729 8.71291L43.3854 10.6261L43.3293 10.096C43.2306 9.16542 43.264 9.17438 39.8932 9.17438H36.9971L36.6177 8.49607C35.0401 5.67567 32.1849 3.34361 29.1146 2.36775C27.5758 1.87868 26.7243 1.75099 25 1.75099C23.2305 1.75099 22.3891 1.88253 20.7759 2.41149C17.726 3.41151 14.9472 5.69837 13.3823 8.49607L13.0029 9.17438H6.50146H0V10.0076V10.8407H6.14583C9.52604 10.8407 12.2917 10.8791 12.2917 10.9259C12.2917 10.9729 12.2209 11.2495 12.1344 11.5407C11.8926 12.3547 11.6679 14.0243 11.6679 15.0066C11.6679 15.9889 11.8926 17.6585 12.1344 18.4725C12.2209 18.7637 12.2917 19.0403 12.2917 19.0873C12.2917 19.1342 11.401 19.1725 10.3125 19.1725H8.33333V18.1784C8.33333 17.2617 8.31344 17.1643 8.0776 16.9286C7.53156 16.3827 7.50062 16.4025 3.67354 19.7439C1.72656 21.4439 0.112396 22.9319 0.0580207 23.0766C-0.00354175 23.2406 -0.00354175 23.4362 0.0580207 23.6001C0.112396 23.7449 1.72656 25.2328 3.67354 26.9328C7.50062 30.2742 7.53156 30.294 8.0776 29.7481C8.31344 29.5124 8.33333 29.415 8.33333 28.4983V27.5043H10H11.6667V26.6711V25.8379H9.43865C6.81969 25.8379 6.76635 25.8557 6.67073 26.7611L6.61458 27.2926L4.42708 25.3739C3.22396 24.3186 2.23958 23.4039 2.23958 23.341C2.23958 23.2782 3.22396 22.3621 4.42708 21.3053L6.61458 19.3837L6.67073 19.9155C6.76917 20.8479 6.73562 20.8388 10.1017 20.8388H12.9927L13.4627 21.646C15.5773 25.2774 19.1009 27.637 23.3073 28.2385L24.1667 28.3614V30.0158V31.6701H23.5891C23.1146 31.6701 22.9656 31.7158 22.7557 31.9258L22.5 32.1814V35.0121C22.5 36.9301 22.5408 37.9809 22.6267 38.2714C22.7957 38.8435 23.6586 39.7062 24.2308 39.8752C25.2253 40.169 26.1257 39.922 26.802 39.17C27.0497 38.8945 27.308 38.4832 27.3761 38.256C27.4586 37.9807 27.5 36.8977 27.5 35.0121V32.1814L27.2443 31.9258C27.0344 31.7158 26.8854 31.6701 26.4109 31.6701H25.8333V30.0113V28.3524L26.4323 28.2863C28.3611 28.0733 30.7395 27.1972 32.4304 26.0768C33.9303 25.0831 35.705 23.1488 36.6233 21.507L36.9971 20.8388H43.4985H50V20.0057V19.1725H43.8542C40.474 19.1725 37.7089 19.1373 37.7096 19.0944C37.7102 19.0515 37.7815 18.7585 37.8679 18.4435C38.1215 17.5185 38.3321 15.9592 38.3321 15.0066C38.3321 14.0243 38.1074 12.3547 37.8656 11.5407C37.7791 11.2495 37.7083 10.9729 37.7083 10.9259C37.7083 10.8791 38.599 10.8407 39.6875 10.8407H41.6667V11.8348C41.6667 12.7515 41.6866 12.8489 41.9224 13.0846C42.4684 13.6305 42.4994 13.6107 46.3265 10.2693C48.2734 8.56929 49.8876 7.08134 49.942 6.93657C50.0035 6.77265 50.0035 6.57706 49.942 6.41313C49.8876 6.26837 48.2734 4.78042 46.3265 3.08043C42.4994 -0.261024 42.4684 -0.280812 41.9224 0.265127ZM0 3.34215V4.17532H0.833333H1.66667V3.34215V2.50897H0.833333H0V3.34215ZM3.33333 3.34215V4.17532H4.16667H5V3.34215V2.50897H4.16667H3.33333V3.34215ZM6.66667 3.34215V4.17532H7.5H8.33333V3.34215V2.50897H7.5H6.66667V3.34215ZM10 3.34215V4.17532H10.8333H11.6667V3.34215V2.50897H10.8333H10V3.34215ZM13.3333 3.34215V4.17532H14.1667H15V3.34215V2.50897H14.1667H13.3333V3.34215ZM35 3.34215V4.17532H35.8333H36.6667V3.34215V2.50897H35.8333H35V3.34215ZM26.8253 3.49535C32.2831 4.38049 36.3132 8.87465 36.6341 14.4338C36.7481 16.411 36.3542 18.2666 35.4179 20.1619C31.6448 27.7999 21.2224 28.9348 15.9023 22.2868C13.0352 18.7039 12.5469 13.8528 14.6351 9.69574C16.8691 5.24856 21.8895 2.69498 26.8253 3.49535ZM23.5118 5.12213C22.1769 5.3174 20.4829 5.9904 19.2771 6.80452C18.4293 7.37691 16.9639 8.9563 16.4491 9.85238C15.3801 11.7131 15.0535 12.9259 15.061 15.0066C15.067 16.6695 15.1977 17.3919 15.7369 18.7416C16.2142 19.9365 16.9232 20.9977 17.9129 21.998C19.2956 23.3958 20.9092 24.305 22.8187 24.7623C24.0066 25.0467 26.2383 25.021 27.3909 24.7096C29.3498 24.1802 30.6124 23.4523 32.0299 22.0352C33.4481 20.6171 34.1775 19.3519 34.7038 17.3971C35.0331 16.1736 35.037 13.7834 34.7115 12.596C33.638 8.67979 30.5761 5.84022 26.6974 5.16389C25.739 4.99684 24.481 4.98028 23.5118 5.12213ZM26.9807 6.91929C28.0202 7.20288 28.7302 7.51261 29.5142 8.02429C33.9524 10.921 34.6159 17.1565 30.8831 20.8886C27.1503 24.6207 20.9136 23.9573 18.0164 19.5199C17.0904 18.1019 16.7233 16.8206 16.7233 15.0066C16.7233 13.1971 17.0912 11.9087 18.0085 10.5067C19.2492 8.61053 21.1752 7.30421 23.4375 6.82441C24.2724 6.64736 26.1703 6.69818 26.9807 6.91929ZM25 9.15136V9.96142L25.7394 10.0779C27.8805 10.415 29.5937 12.1341 29.9326 14.2859L30.0461 15.0066H30.8564H31.6667L31.6649 14.6681C31.6611 13.9739 31.3459 12.8443 30.9165 11.9863C30.2972 10.7493 29.2322 9.68335 28.0173 9.08461C27.1581 8.66104 26.0223 8.34662 25.3385 8.34298L25 8.3412V9.15136ZM18.3351 15.3451C18.3387 16.0287 18.6532 17.1643 19.0769 18.0233C19.6814 19.2495 20.7458 20.3101 21.9858 20.9221C22.857 21.352 23.9821 21.6666 24.6615 21.6702L25 21.672V20.8619V20.0518L24.2792 19.9383C22.127 19.5995 20.4075 17.8866 20.0703 15.7458L19.9539 15.0066H19.1436H18.3333L18.3351 15.3451ZM13.3333 26.6711V27.5043H14.1667H15V26.6711V25.8379H14.1667H13.3333V26.6711ZM35 26.6711V27.5043H35.8333H36.6667V26.6711V25.8379H35.8333H35V26.6711ZM38.3333 26.6711V27.5043H39.1667H40V26.6711V25.8379H39.1667H38.3333V26.6711ZM41.6667 26.6711V27.5043H42.5H43.3333V26.6711V25.8379H42.5H41.6667V26.6711ZM45 26.6711V27.5043H45.8333H46.6667V26.6711V25.8379H45.8333H45V26.6711ZM48.3333 26.6711V27.5043H49.1667H50V26.6711V25.8379H49.1667H48.3333V26.6711ZM9.4224 32.759C9.16875 33.0125 9.16667 33.0307 9.16667 35.0028C9.16667 36.975 9.16875 36.9932 9.4224 37.2467C9.66406 37.4884 9.74323 37.5024 10.8722 37.5024H12.0664L12.2954 38.2054C12.4214 38.5919 12.738 39.3677 12.9992 39.9292L13.474 40.9499L12.6808 41.7518C11.8153 42.6267 11.6683 42.9413 11.9105 43.4015C12.1577 43.8715 15.6391 47.267 15.9539 47.3452C16.3363 47.4403 16.601 47.2802 17.4686 46.4292L18.2186 45.6936L19.2395 46.1682C19.801 46.4293 20.5768 46.7459 20.9635 46.8718L21.6667 47.1009V48.2948C21.6667 49.4235 21.6806 49.5027 21.9224 49.7443L22.178 50H25H27.822L28.0776 49.7443C28.3194 49.5027 28.3333 49.4235 28.3333 48.2948V47.1009L29.0365 46.8718C29.4231 46.7459 30.1991 46.4293 30.7606 46.1682L31.7816 45.6935L32.5835 46.4865C33.4245 47.3181 33.7782 47.4958 34.183 47.2899C34.5301 47.1134 37.899 43.7592 38.0884 43.4015C38.332 42.9417 38.1854 42.6274 37.3192 41.7518L36.526 40.9499L37.0008 39.9292C37.262 39.3677 37.5786 38.5919 37.7046 38.2054L37.9336 37.5024H39.1278C40.2568 37.5024 40.3359 37.4884 40.5776 37.2467C40.8312 36.9932 40.8333 36.975 40.8333 35.0028C40.8333 33.0307 40.8312 33.0125 40.5776 32.759L40.322 32.5033H36.6667H33.0114L32.7557 32.759C32.5159 32.9986 32.5 33.0844 32.5 34.1323C32.5 35.4724 32.3155 36.3089 31.7682 37.4503C30.7897 39.491 29.0299 40.9087 26.7734 41.4738C26.0364 41.6585 25.6926 41.6859 24.6901 41.6404C22.6652 41.5487 21.1681 40.8834 19.7372 39.4393C18.31 37.999 17.5968 36.2786 17.5526 34.1697C17.5249 32.8489 17.549 32.9736 17.272 32.7157C17.0515 32.5103 16.9235 32.5033 13.361 32.5033H9.67802L9.4224 32.759ZM25.8333 35.5803C25.8333 37.824 25.8333 37.8243 25.5776 38.0799C25.4165 38.2411 25.2029 38.3355 25 38.3355C24.7971 38.3355 24.5835 38.2411 24.4224 38.0799C24.1667 37.8243 24.1667 37.824 24.1667 35.5803V33.3365H25H25.8333V35.5803ZM15.9135 35.2228C16.3937 39.2377 19.4494 42.4892 23.3872 43.1758C28.6073 44.0859 33.4576 40.4805 34.0865 35.2228L34.2124 34.1697H36.6896H39.1667V35.0028V35.836H38.0788C36.6787 35.836 36.5856 35.9087 36.2095 37.2941C36.0504 37.8801 35.664 38.8354 35.2616 39.6374C34.8879 40.382 34.5825 41.0787 34.5828 41.1855C34.5831 41.2923 34.9447 41.7509 35.3862 42.2047L36.1893 43.0296L35.0254 44.1932L33.8617 45.3568L33.0366 44.5539C32.5827 44.1125 32.124 43.7506 32.0172 43.7497C31.9103 43.7489 31.2135 44.0534 30.4688 44.4264C29.6228 44.8501 28.7432 45.2015 28.125 45.3629C26.7459 45.7228 26.6667 45.8252 26.6667 47.2459V48.3336H25H23.3333V47.2459C23.3333 45.8462 23.2606 45.7531 21.875 45.377C21.2889 45.218 20.3333 44.8316 19.5312 44.4293C18.7865 44.0557 18.0897 43.7503 17.9828 43.7507C17.876 43.751 17.4173 44.1125 16.9634 44.5539L16.1383 45.3568L14.9746 44.1932L13.8107 43.0296L14.6138 42.2047C15.0553 41.7509 15.4173 41.2923 15.4181 41.1855C15.419 41.0787 15.1144 40.382 14.7414 39.6374C14.3175 38.7916 13.966 37.9122 13.8047 37.2941C13.4447 35.9153 13.3423 35.836 11.9212 35.836H10.8333V35.0028V34.1697H13.3104H15.7876L15.9135 35.2228Z" fill="url(#paint0_linear_1107_4287)"/>
<defs>
<linearGradient id="paint0_linear_1107_4287" x1="0" y1="0" x2="55.9847" y2="7.97219" gradientUnits="userSpaceOnUse">
<stop stop-color="#F11F22"/>
<stop offset="1" stop-color="#F2891D"/>
</linearGradient>
</defs>
</svg>
