<svg width="50" height="50" viewBox="0 0 50 50" fill="none" xmlns="http://www.w3.org/2000/svg">
<path fill-rule="evenodd" clip-rule="evenodd" d="M41.3418 0.108414C40.3108 0.446584 39.5104 1.17041 39.1767 2.06631L38.992 2.56228L37.1495 2.61113C35.1099 2.66526 34.8832 2.72477 34.4603 3.31806L34.2329 3.63708L34.2059 8.64466L34.1788 13.6523H31.9839C30.0727 13.6523 29.7889 13.6328 29.7889 13.5018C29.7889 13.1969 29.3874 12.5769 29.0905 12.4233C28.9223 12.3362 28.4094 12.2042 27.9506 12.1299C27.4919 12.0557 27.0887 11.9611 27.0547 11.9198C27.0207 11.8784 26.9138 11.5808 26.817 11.2584C26.7202 10.9359 26.4703 10.3284 26.2616 9.90824C26.0529 9.48809 25.8822 9.11337 25.8822 9.07556C25.8822 9.03784 26.1018 8.70544 26.3703 8.33708C27.3205 7.03325 27.2558 6.52956 25.982 5.3121C24.8719 4.25108 24.3982 4.20359 23.257 5.03871C22.9013 5.29901 22.5613 5.53976 22.5013 5.57377C22.4413 5.60767 22.1357 5.49648 21.8222 5.32666C21.5088 5.15674 20.855 4.88023 20.3695 4.71207L19.4868 4.40634L19.371 3.58207C19.2364 2.62344 19.0371 2.19382 18.6022 1.92482C18.3355 1.75999 18.1146 1.73175 17.092 1.73175C16.0694 1.73175 15.8485 1.75999 15.5819 1.92482C15.1469 2.19382 14.9476 2.62344 14.813 3.58207L14.6973 4.40634L13.8145 4.71207C13.329 4.88023 12.6752 5.15674 12.3618 5.32666C12.0483 5.49648 11.7427 5.60767 11.6827 5.57377C11.6228 5.53976 11.2827 5.29901 10.9271 5.03871C9.78581 4.20359 9.31212 4.25108 8.20202 5.3121C6.92822 6.52956 6.86357 7.03325 7.81369 8.33708C8.08218 8.70544 8.30184 9.03726 8.30184 9.07449C8.30184 9.11162 8.14254 9.45584 7.94779 9.83935C7.75304 10.2228 7.49402 10.8529 7.37213 11.2394L7.15061 11.9423L6.43216 12.0715C4.67491 12.3874 4.45965 12.6125 4.41033 14.1861C4.35221 16.0377 4.60478 16.3871 6.20196 16.6648L7.13929 16.8278L7.43385 17.7072C7.59589 18.1908 7.85744 18.8252 8.01508 19.1169C8.17282 19.4086 8.30184 19.6867 8.30184 19.735C8.30184 19.7833 8.1022 20.0823 7.85822 20.3995C6.88193 21.6688 6.90254 22.1079 7.99154 23.2483C8.84673 24.1438 9.10399 24.3025 9.69957 24.3025C10.1399 24.3025 10.2499 24.2465 11.2766 23.5002L11.7609 23.1483L12.4975 23.5175C12.9026 23.7207 13.5542 23.9895 13.9454 24.1149C14.7285 24.366 14.6782 24.2932 14.8504 25.4262C15.0537 26.7629 15.5429 27.1361 17.092 27.1361C18.6411 27.1361 19.1304 26.7629 19.3336 25.4262C19.5058 24.2932 19.4555 24.366 20.2386 24.1149C20.6299 23.9895 21.2814 23.7207 21.6865 23.5175L22.4232 23.1483L22.9074 23.5002C23.9341 24.2465 24.0442 24.3025 24.4845 24.3025C25.0699 24.3025 25.3265 24.1483 26.1406 23.3069C27.2582 22.1518 27.2952 21.6838 26.3657 20.4554C26.0997 20.1041 25.8822 19.7785 25.8822 19.7319C25.8822 19.6853 26.0112 19.4086 26.1689 19.1169C26.3266 18.8252 26.5881 18.1908 26.7502 17.7072L27.0447 16.8278L27.9625 16.6681C28.4674 16.5803 28.9718 16.4595 29.0837 16.3996C29.3611 16.2511 29.6802 15.7839 29.7531 15.4192L29.8134 15.1179H31.9962H34.1788L34.2059 20.1332L34.2329 25.1484L34.5143 25.5175C34.958 26.0993 35.2091 26.159 37.2117 26.159C38.8069 26.159 38.9809 26.1754 39.0283 26.33C39.3119 27.2556 39.9924 28.0751 40.8116 28.4776C41.2898 28.7125 41.4789 28.7483 42.2417 28.7483C42.9884 28.7483 43.2037 28.7093 43.6723 28.4896C44.3748 28.1601 44.9745 27.5602 45.3038 26.8574C45.5201 26.3958 45.5624 26.1694 45.5624 25.473C45.5624 24.7289 45.5282 24.5709 45.2409 23.987C44.6784 22.8439 43.7562 22.2485 42.437 22.1766C41.4724 22.124 40.7742 22.3551 40.0975 22.951C39.6303 23.3624 39.07 24.218 39.0683 24.5224C39.0676 24.6787 38.9206 24.6934 37.3583 24.6934H35.6491V19.9033V15.1133L37.3204 15.14L38.9918 15.1667L39.1806 15.6734C39.5788 16.7416 40.7794 17.6195 41.9929 17.7295C43.3103 17.8491 44.6843 17.0534 45.2895 15.8204C45.5287 15.333 45.5618 15.156 45.5573 14.3851C45.5531 13.6745 45.5092 13.4172 45.3283 13.0449C44.8122 11.9824 43.7463 11.2026 42.6168 11.0613C41.2052 10.8846 39.7028 11.813 39.1525 13.2018L38.9935 13.6034L37.3204 13.6302L35.6472 13.6568L35.6725 8.89128L35.6979 4.12562L37.3236 4.09885L38.9492 4.07218L39.2432 4.70064C40.4761 7.33644 44.0647 7.3211 45.3051 4.67475C45.6512 3.93616 45.6713 2.70552 45.3486 2.00368C45.057 1.36935 44.3214 0.611615 43.704 0.309303C43.068 -0.00189988 41.9643 -0.0957982 41.3418 0.108414ZM43.027 1.62232C44.8609 2.45558 44.2535 5.20081 42.2392 5.18342C41.6838 5.17863 41.285 5.00305 40.9107 4.59844C40.5211 4.17741 40.4209 3.91848 40.4209 3.3334C40.4209 1.94163 41.7743 1.05297 43.027 1.62232ZM17.996 4.28577C18.1068 5.06773 18.2007 5.42222 18.3292 5.54455C18.4276 5.63826 18.9147 5.82937 19.4115 5.96929C20.2194 6.19696 20.8253 6.46565 22.0011 7.11786C22.2247 7.24176 22.4567 7.2996 22.593 7.2654C22.7163 7.23443 23.2039 6.91727 23.6764 6.56073L24.5357 5.91233L25.0136 6.38319C25.2765 6.64222 25.4915 6.89479 25.4915 6.94443C25.4915 6.99416 25.2058 7.43161 24.8567 7.91663C24.5 8.41192 24.2218 8.90027 24.2218 9.03091C24.2218 9.15881 24.419 9.60045 24.66 10.0124C25.0643 10.7033 25.42 11.6186 25.6854 12.651C25.7464 12.8887 25.8846 13.1256 26.0081 13.2046C26.173 13.3102 27.8958 13.6523 28.2623 13.6523C28.2962 13.6523 28.3239 13.9772 28.3239 14.3745C28.3239 15.207 28.4317 15.1284 27.0208 15.3237C26.5422 15.3899 26.0723 15.5122 25.9668 15.598C25.8528 15.6908 25.6969 16.0637 25.5785 16.5268C25.3583 17.3885 24.9488 18.3498 24.5112 19.0319C24.0864 19.6943 24.1245 19.899 24.8567 20.8827C25.2058 21.3518 25.4915 21.7763 25.4915 21.8259C25.4915 21.8754 25.2752 22.1292 25.0107 22.3898L24.5299 22.8636L23.6246 22.1989C23.0623 21.7859 22.6246 21.5342 22.4695 21.5344C22.332 21.5346 21.868 21.7362 21.4383 21.9823C20.6711 22.4217 20.0272 22.6777 18.9361 22.9773C18.6342 23.0603 18.338 23.1874 18.2778 23.26C18.2176 23.3326 18.0903 23.8936 17.9948 24.5067L17.8211 25.6216H17.092H16.3629L16.1893 24.5067C16.0937 23.8936 15.9664 23.3326 15.9062 23.26C15.8461 23.1874 15.5498 23.0603 15.2479 22.9773C14.1568 22.6777 13.5129 22.4217 12.7458 21.9823C12.316 21.7362 11.852 21.5346 11.7146 21.5344C11.5594 21.5342 11.1217 21.7859 10.5594 22.1989L9.65415 22.8636L9.17333 22.3898C8.90884 22.1292 8.69251 21.8754 8.69251 21.8259C8.69251 21.7763 8.97819 21.3518 9.32736 20.8827C9.73024 20.3414 9.9622 19.9362 9.9622 19.7737C9.9622 19.6329 9.83045 19.3034 9.66939 19.0416C9.21484 18.3026 8.82202 17.3741 8.60549 16.5268C8.48711 16.0637 8.33123 15.6908 8.21725 15.598C8.11177 15.5122 7.64179 15.3899 7.16321 15.3237C5.75229 15.1284 5.86012 15.207 5.86012 14.3745C5.86012 13.9772 5.88786 13.6523 5.92175 13.6523C6.2882 13.6523 8.01098 13.3102 8.17594 13.2046C8.2993 13.1257 8.43779 12.8884 8.49903 12.651C8.78676 11.5352 9.05808 10.8305 9.48988 10.0772C9.74967 9.6239 9.9622 9.1507 9.9622 9.02573C9.9622 8.90066 9.67652 8.40156 9.32736 7.91663C8.97819 7.43161 8.69251 6.99416 8.69251 6.94443C8.69251 6.89479 8.9066 6.64319 9.16825 6.38534L9.64409 5.91643L10.5112 6.5617C10.9882 6.91648 11.4767 7.23267 11.5969 7.26423C11.7293 7.29911 11.9599 7.24146 12.1829 7.11786C13.3587 6.46565 13.9647 6.19696 14.7725 5.96929C15.2693 5.82937 15.7564 5.63826 15.8548 5.54455C15.9834 5.42222 16.0772 5.06773 16.188 4.28577L16.3421 3.19739H17.092H17.8419L17.996 4.28577ZM16.0665 8.95782C13.9029 9.42839 12.2019 11.0691 11.719 13.1516C11.5559 13.8549 11.5792 15.1315 11.7681 15.8428C12.1364 17.2298 13.3123 18.6837 14.559 19.2934C15.9191 19.9586 17.632 20.0846 18.8989 19.6128C19.6191 19.3446 19.8364 19.1474 19.8476 18.7522C19.8662 18.0982 19.3929 17.8772 18.5883 18.1642C15.6243 19.221 12.7297 16.9459 13.095 13.8465C13.3549 11.6417 15.7013 9.95269 17.861 10.416C19.3293 10.7311 20.5345 11.827 20.9642 13.238C21.1984 14.0072 21.1485 15.1011 20.8443 15.8615C20.701 16.22 20.5837 16.6256 20.5837 16.7628C20.5837 17.0518 21.0071 17.4629 21.3048 17.4629C22.0605 17.4629 22.7548 15.3916 22.5533 13.7382C22.3477 12.0519 21.3543 10.5077 19.9361 9.67002C18.8522 9.02973 17.1644 8.71912 16.0665 8.95782ZM43.1695 12.7613C44.1832 13.2818 44.4385 14.7185 43.6779 15.6228C42.5663 16.9445 40.4209 16.1341 40.4209 14.3924C40.4209 12.9509 41.8671 12.0926 43.1695 12.7613ZM43.1278 23.8174C44.2103 24.3417 44.4553 25.7729 43.6247 26.7194C42.6438 27.837 40.7787 27.3487 40.4507 25.8883C40.1042 24.3454 41.6881 23.1202 43.1278 23.8174ZM32.5171 28.9576C32.3793 28.9821 30.0549 30.1611 27.3517 31.5776L22.437 34.1531L22.0353 34.0111C19.1768 33.0015 15.5741 32.8863 12.7197 33.7134C12.2766 33.8418 11.8265 34.0261 11.7195 34.123C11.3301 34.4756 11.5912 35.3441 12.0865 35.3434C12.1805 35.3433 12.7848 35.2093 13.4294 35.0457C16.0204 34.3882 18.7269 34.5074 21.4964 35.4007L22.5312 35.7345H27.5811C31.904 35.7345 32.6723 35.7558 32.9176 35.8827C33.6695 36.2717 33.6963 37.5411 32.9627 38.0219C32.7703 38.1481 31.2119 38.3779 26.5848 38.9623C19.2916 39.8834 19.7877 39.807 19.5749 40.0421C19.3435 40.298 19.357 40.7797 19.6026 41.0254C19.7751 41.1979 20.2253 41.2774 22.964 41.6192C25.757 41.9677 26.3716 42.0141 28.2262 42.0168C30.5719 42.0202 32.1285 41.8354 34.185 41.3094C36.8056 40.6391 38.0922 40.0606 42.8665 37.4062C44.928 36.2601 46.7491 35.2838 46.9134 35.2367C48.1464 34.8829 49.0703 36.5889 48.1234 37.4713C48.004 37.5824 46.3902 38.4951 44.5369 39.4993C40.2277 41.8344 40.4348 41.6991 40.4348 42.1776C40.4348 42.4743 40.4924 42.6053 40.6922 42.7624C40.8337 42.8738 41.0198 42.965 41.1055 42.965C41.1914 42.965 42.9682 42.034 45.0542 40.8961C48.3114 39.1191 48.9079 38.7592 49.2791 38.3461C50.2415 37.2752 50.2402 35.7556 49.2758 34.6825C48.5803 33.9086 47.5372 33.581 46.4845 33.8056L46.137 33.8799L46.0076 33.3749C45.8186 32.637 45.0816 31.9015 44.3077 31.6783C43.5143 31.4496 43.0298 31.5457 41.7941 32.1772C41.2256 32.4678 40.7368 32.7055 40.7078 32.7055C40.6788 32.7055 40.6278 32.5349 40.5945 32.3264C40.5027 31.7522 39.9763 31.0634 39.3651 30.718C38.9263 30.47 38.7271 30.419 38.1794 30.4146C37.5779 30.4098 37.4434 30.4499 36.6225 30.8784C36.1283 31.1364 35.7151 31.3343 35.7041 31.3181C35.6932 31.3019 35.6319 31.1061 35.5679 30.8828C35.1881 29.5583 33.8591 28.7196 32.5171 28.9576ZM33.5387 30.5086C33.9097 30.6848 34.184 31.1101 34.184 31.5092C34.184 32.0846 33.8401 32.3817 32.0526 33.3513L30.3607 34.2688H27.9554C26.4474 34.2688 25.5847 34.2345 25.6429 34.1766C25.7289 34.0912 32.4272 30.5498 32.7297 30.4298C32.9725 30.3334 33.2206 30.3577 33.5387 30.5086ZM38.8965 32.2182C39.2291 32.5835 39.2609 33.1435 38.9702 33.5134C38.8629 33.6497 37.8865 34.2322 36.8001 34.8077L34.8249 35.8542L34.6754 35.6256C34.381 35.1758 33.9958 34.792 33.6533 34.6074C33.4618 34.5042 33.3054 34.3969 33.3058 34.3688C33.3066 34.3207 34.0983 33.8879 36.8558 32.4279C38.1762 31.7288 38.4272 31.703 38.8965 32.2182ZM44.0475 33.1446C44.43 33.3426 44.6346 33.66 44.6346 34.0556C44.6346 34.7083 44.4727 34.8332 41.474 36.4951C37.9819 38.4304 37.1241 38.839 35.2852 39.4431C32.6234 40.3176 29.401 40.7652 27.1882 40.5677L26.3217 40.4904L29.5936 40.0689C31.3931 39.8371 33.0633 39.5744 33.305 39.4849C33.8941 39.2672 34.6114 38.5216 34.8334 37.8963L35.0077 37.4057L38.033 35.8128C43.0989 33.1456 43.3885 32.9986 43.58 32.9986C43.6819 32.9986 43.8923 33.0643 44.0475 33.1446ZM8.62229 35.4377C7.7796 35.8974 6.98458 36.4008 6.28498 36.9178L5.77075 37.2978H3.1251H0.479455L0.239777 37.5377L0 37.7775V42.8497C0 47.833 0.00351607 47.9262 0.202467 48.1792L0.404837 48.4367L3.05928 48.4369C5.58284 48.4371 6.14385 48.4756 14.4481 49.2185C19.2521 49.6483 23.4802 50 23.8438 50C24.8271 50 26.571 49.7448 27.7947 49.4219C30.3058 48.759 32.7618 47.6496 37.3867 45.089C38.9977 44.197 39.2628 43.9829 39.2628 43.5739C39.2628 43.2908 38.8522 42.8672 38.5777 42.8672C38.4646 42.8672 37.4628 43.3677 36.3514 43.9794C31.5468 46.6234 29.0245 47.7001 26.3664 48.2421C24.6358 48.5949 23.7943 48.5898 19.4849 48.1996C17.3362 48.0051 14.1058 47.714 12.3062 47.5528C10.5067 47.3916 8.33387 47.1947 7.47781 47.1153C6.62164 47.036 4.91859 46.971 3.69314 46.971H1.46503V42.8672V38.7635H3.81552C5.41963 38.7635 6.2337 38.7272 6.37933 38.6494C6.49663 38.5867 6.90029 38.3061 7.27631 38.0259C7.65234 37.7456 8.43398 37.2416 9.01325 36.9059C10.07 36.2935 10.2552 36.1192 10.2552 35.7364C10.2552 35.4619 9.83201 35.0501 9.55151 35.0519C9.42825 35.0527 9.01013 35.2263 8.62229 35.4377Z" fill="url(#paint0_linear_1107_4309)"/>
<defs>
<linearGradient id="paint0_linear_1107_4309" x1="0" y1="0" x2="55.9847" y2="7.97219" gradientUnits="userSpaceOnUse">
<stop stop-color="#F11F22"/>
<stop offset="1" stop-color="#F2891D"/>
</linearGradient>
</defs>
</svg>
