<svg width="50" height="50" viewBox="0 0 50 50" fill="none" xmlns="http://www.w3.org/2000/svg">
<path fill-rule="evenodd" clip-rule="evenodd" d="M18.9232 0.0615173C16.56 0.287047 13.9845 1.00478 11.866 2.02816C9.65255 3.09747 8.05866 4.21348 6.32098 5.91067C4.42857 7.75883 3.23887 9.41527 2.09018 11.8009C0.399468 15.3122 -0.276816 19.0648 0.10244 22.8297C1.07039 32.4357 8.39164 40.086 17.9343 41.4626C19.5036 41.689 22.2998 41.6871 23.7715 41.4587C26.0517 41.1048 28.1615 40.4382 30.1355 39.448C31.2228 38.9026 32.5795 38.0668 33.3002 37.4982L33.6811 37.1976L35.2007 38.7162C36.6342 40.1488 36.7238 40.2608 36.7821 40.6944C36.816 40.9471 36.9738 41.3776 37.1327 41.6509C37.3153 41.9649 38.7682 43.491 41.0792 45.7958C45.2782 49.9838 45.3 50 46.723 50C47.6832 50 48.4053 49.7079 49.0567 49.0559C49.7085 48.4035 49.9999 47.6813 50 46.718C50.0002 45.2859 49.9448 45.2122 45.6599 40.9356C41.8097 37.0928 41.6118 36.9284 40.6492 36.7744C40.2913 36.7171 40.069 36.5337 38.7297 35.1912L37.215 33.6728L37.6156 33.1394C39.5737 30.5307 41.0156 26.9354 41.4579 23.5583C41.6504 22.0883 41.651 19.5711 41.4592 18.1064C40.2495 8.86978 33.0299 1.55226 23.797 0.204449C22.431 0.00496102 20.2003 -0.0604415 18.9232 0.0615173ZM23.3061 1.79677C29.5852 2.615 35.0961 6.51629 37.9239 12.1451C40.6518 17.575 40.6946 23.8022 38.0415 29.2265C33.3336 38.8513 21.7639 42.7372 12.1786 37.9133C6.55971 35.0854 2.65633 29.5617 1.83953 23.2825C0.903156 16.0827 4.16461 8.89721 10.1978 4.8681C14.0124 2.32059 18.7704 1.20576 23.3061 1.79677ZM18.2493 3.48213C14.9604 4.01708 12.0996 5.30704 9.63159 7.36771C6.27837 10.1675 4.16104 13.9742 3.51653 18.3621C3.28971 19.9064 3.36618 22.832 3.67076 24.2567C5.25799 31.6826 11.1732 37.1947 18.5992 38.1676C25.5129 39.0735 32.2307 35.7983 35.8884 29.7384C38.9814 24.6141 39.1332 17.889 36.2756 12.5776C33.7775 7.93427 29.5142 4.7538 24.2795 3.62814C22.9788 3.34854 19.5772 3.26614 18.2493 3.48213ZM23.4353 5.18846C25.8772 5.59002 28.1634 6.55962 30.3113 8.10483C31.2245 8.76184 33.0272 10.6099 33.7313 11.6112C34.936 13.3241 35.9028 15.5511 36.3667 17.6818C36.5553 18.5479 36.5863 18.9927 36.5863 20.8275C36.5862 23.2098 36.4737 23.9492 35.8074 25.9422C34.2935 30.4704 30.6066 34.1829 26.0458 35.7719C24.1625 36.428 23.1584 36.5823 20.8037 36.5774C18.4517 36.5725 17.5603 36.4337 15.6837 35.7798C7.51267 32.9331 3.15088 24.2037 5.77916 15.9571C7.91238 9.26369 14.4228 4.69148 21.3995 4.98698C22.0003 5.01243 22.9165 5.10308 23.4353 5.18846ZM11.2119 12.6057C11.1253 12.6723 11.0023 12.8244 10.9388 12.9438C10.7823 13.238 10.7731 27.6398 10.9292 28.0521C11.0798 28.45 11.4064 28.7766 11.866 28.9889C12.2428 29.1629 12.7229 29.1725 21.1696 29.1746C26.8268 29.176 30.1706 29.1408 30.3352 29.0782C30.6334 28.9646 30.874 28.4766 30.8063 28.1225C30.7809 27.9892 30.6477 27.7917 30.5104 27.6835C30.2659 27.4911 30.0767 27.487 21.3861 27.487H12.5115V20.324C12.5115 15.0688 12.4807 13.1032 12.396 12.9438C12.2264 12.6253 12.0033 12.4846 11.6674 12.4846C11.5035 12.4846 11.2986 12.5391 11.2119 12.6057ZM17.8418 15.2633C17.5586 15.3483 14.5541 17.538 14.3239 17.8271C14.1136 18.0911 14.1733 18.6234 14.4435 18.8938C14.8844 19.335 15.1406 19.2427 16.702 18.0806C17.4832 17.4992 18.1711 16.9853 18.2307 16.9385C18.299 16.8851 18.8305 17.2221 19.6644 17.8477C20.4124 18.4089 21.1546 18.8864 21.3685 18.944C21.8742 19.0803 22.2113 18.9745 23.7302 18.2029L24.9685 17.5738L26.3488 18.2563C28.3322 19.2373 28.5601 19.2124 29.9152 17.8674C30.6868 17.1015 30.7841 16.9649 30.7841 16.6474C30.7841 16.1842 30.454 15.8577 29.9856 15.8577C29.6979 15.8577 29.5377 15.9662 28.9247 16.5756L28.2026 17.2935L26.8368 16.6164C25.0283 15.7197 24.9981 15.7199 23.1624 16.6404L21.7668 17.3401L20.506 16.391C18.8832 15.1694 18.5807 15.0414 17.8418 15.2633ZM17.8052 19.3774L17.5265 19.6172L17.4953 21.4322C17.4781 22.4306 17.4904 23.3526 17.5226 23.4812C17.6807 24.1114 18.4606 24.3247 18.9213 23.8636C19.163 23.6217 19.1651 23.6036 19.1651 21.7313C19.1651 19.7205 19.1119 19.4348 18.7026 19.2481C18.3366 19.0812 18.112 19.1135 17.8052 19.3774ZM24.4588 19.3774L24.1801 19.6171L24.1485 21.3382C24.1126 23.2919 24.1524 23.6302 24.4517 23.9092C24.7727 24.2086 25.3527 24.1768 25.6129 23.8457C25.8049 23.6012 25.8187 23.4556 25.8187 21.6671C25.8187 20.6129 25.7909 19.678 25.757 19.5895C25.6832 19.3969 25.2119 19.1378 24.9354 19.1378C24.8265 19.1378 24.612 19.2456 24.4588 19.3774ZM14.4435 21.0715C14.2008 21.3143 14.1997 21.3247 14.1997 23.3124C14.1997 25.3001 14.2008 25.3105 14.4435 25.5533C14.745 25.8552 15.1729 25.8702 15.527 25.5913L15.7887 25.3853V23.3124V21.2395L15.527 21.0336C15.1729 20.7546 14.745 20.7697 14.4435 21.0715ZM21.0971 21.0715C20.8544 21.3143 20.8533 21.3247 20.8533 23.3124C20.8533 25.3001 20.8544 25.3105 21.0971 25.5533C21.4127 25.8693 21.8492 25.8709 22.2133 25.5575L22.4919 25.3175V23.3124V21.3073L22.2133 21.0673C21.8492 20.754 21.4127 20.7555 21.0971 21.0715ZM27.7507 21.0715C27.508 21.3143 27.5069 21.3247 27.5069 23.3124C27.5069 25.3001 27.508 25.3105 27.7507 25.5533C28.1096 25.9125 28.6058 25.8867 28.9381 25.4915C29.1948 25.1861 29.1952 25.1827 29.1952 23.3124C29.1952 21.4421 29.1948 21.4387 28.9381 21.1333C28.6058 20.7381 28.1096 20.7123 27.7507 21.0715ZM37.2244 36.07L38.2487 37.0988L37.6789 37.6692L37.1091 38.2396L36.0588 37.1885L35.0086 36.1374L35.5495 35.5892C35.8469 35.2877 36.1149 35.0411 36.1451 35.0411C36.1752 35.0411 36.6609 35.5041 37.2244 36.07ZM40.6435 38.4598C40.8229 38.5377 42.5378 40.1843 44.5517 42.212C47.337 45.0167 48.1669 45.9095 48.2592 46.2004C48.6384 47.3942 47.4802 48.5803 46.2512 48.2567C45.8823 48.1595 45.3744 47.6926 42.2189 44.5503C40.1962 42.5361 38.5477 40.8145 38.47 40.6353C38.1435 39.8815 38.4569 38.957 39.1776 38.5485C39.6298 38.2922 40.1804 38.2589 40.6435 38.4598Z" fill="url(#paint0_linear_1107_4298)"/>
<defs>
<linearGradient id="paint0_linear_1107_4298" x1="0" y1="0" x2="55.9847" y2="7.97219" gradientUnits="userSpaceOnUse">
<stop stop-color="#F11F22"/>
<stop offset="1" stop-color="#F2891D"/>
</linearGradient>
</defs>
</svg>
